<?xml version="1.0" encoding="UTF-8" standalone="no"?>
<!-- Created with Inkscape (http://www.inkscape.org/) -->

<svg
   xmlns:dc="http://purl.org/dc/elements/1.1/"
   xmlns:cc="http://creativecommons.org/ns#"
   xmlns:rdf="http://www.w3.org/1999/02/22-rdf-syntax-ns#"
   xmlns:svg="http://www.w3.org/2000/svg"
   xmlns="http://www.w3.org/2000/svg"
   xmlns:sodipodi="http://sodipodi.sourceforge.net/DTD/sodipodi-0.dtd"
   xmlns:inkscape="http://www.inkscape.org/namespaces/inkscape"
   width="271.99164mm"
   height="267.14172mm"
   viewBox="0 0 271.99164 267.14172"
   version="1.1"
   id="svg1068"
   inkscape:version="0.92.4 (5da689c313, 2019-01-14)"
   sodipodi:docname="atom.svg"
   inkscape:export-filename="C:\Users\jedge\OneDrive\Documents\Website\jamesedgeley.github.io\Physics\atom.png"
   inkscape:export-xdpi="96"
   inkscape:export-ydpi="96">
  <defs
     id="defs1062">
    <clipPath
       clipPathUnits="userSpaceOnUse"
       id="clipPath1664">
      <rect
         style="fill:none;fill-opacity:1;stroke:#000000;stroke-width:3;stroke-miterlimit:4;stroke-dasharray:none;stroke-dashoffset:0;stroke-opacity:1"
         id="rect1666"
         width="271.99164"
         height="271.99164"
         x="1054.1"
         y="646.77917" />
    </clipPath>
  </defs>
  <sodipodi:namedview
     id="base"
     pagecolor="#ffffff"
     bordercolor="#666666"
     borderopacity="1.0"
     inkscape:pageopacity="0.0"
     inkscape:pageshadow="2"
     inkscape:zoom="0.25"
     inkscape:cx="-656.6287"
     inkscape:cy="-170.98947"
     inkscape:document-units="mm"
     inkscape:current-layer="layer1"
     showgrid="false"
     inkscape:window-width="3840"
     inkscape:window-height="2066"
     inkscape:window-x="-11"
     inkscape:window-y="-11"
     inkscape:window-maximized="1" />
  <metadata
     id="metadata1065">
    <rdf:RDF>
      <cc:Work
         rdf:about="">
        <dc:format>image/svg+xml</dc:format>
        <dc:type
           rdf:resource="http://purl.org/dc/dcmitype/StillImage" />
        <dc:title></dc:title>
      </cc:Work>
    </rdf:RDF>
  </metadata>
  <g
     inkscape:label="Layer 1"
     inkscape:groupmode="layer"
     id="layer1"
     transform="translate(-1054.1,-651.62909)">
    <path
       style="fill:#000000;stroke-width:1"
       d="m 1015.4858,973.79926 v -14.11111 h 176.3888 176.3889 v 14.11111 14.11111 h -176.3889 -176.3888 z m 16.2247,1.05833 c 1.7919,-5.03022 1.8649,-5.29166 1.4763,-5.29166 -0.186,0 -0.9364,1.70656 -1.6675,3.79236 -0.7312,2.0858 -1.4417,3.92204 -1.5789,4.08051 -0.1373,0.1585 -0.8535,-1.4761 -1.5916,-3.63241 -1.2336,-3.60377 -1.7229,-4.56209 -2.1245,-4.16052 -0.1323,0.13236 0.6709,2.54497 2.5342,7.61185 0.8512,2.31454 1.4443,1.83236 2.952,-2.40013 z m 6.1478,3.66642 c 1.0966,-0.42079 0.5312,-0.75448 -0.9882,-0.58325 -1.2507,0.14097 -1.6891,0.0314 -2.2931,-0.57248 -1.4005,-1.4005 -1.008,-1.80513 1.7507,-1.80513 h 2.4975 l -0.2425,-1.14653 c -0.4509,-2.13166 -2.0814,-3.19539 -3.8547,-2.51488 -0.8448,0.32417 -1.6033,2.0254 -1.6033,3.59579 0,2.40372 2.3841,3.92808 4.7336,3.02648 z m -4.0281,-4.11709 c 0,-0.86752 1.1035,-2.01877 1.9351,-2.01877 1.0113,0 1.9455,0.85905 1.9455,1.78908 0,0.58949 -0.2592,0.68036 -1.9403,0.68036 -1.3393,0 -1.9403,-0.13959 -1.9403,-0.45067 z m 10.836,3.75546 c 0.09,-0.27263 -0.35,-0.34516 -1.3846,-0.22857 -1.9278,0.21732 -2.909,-0.70128 -2.909,-2.72344 0,-1.83924 0.9719,-2.88311 2.6159,-2.80966 1.7881,0.0799 2.0215,0.0201 1.425,-0.36534 -0.9939,-0.64234 -2.809,-0.39804 -3.7058,0.49879 -1.5892,1.58916 -1.581,3.77141 0.02,5.37253 0.6992,0.69917 1.162,0.85019 2.3395,0.76334 0.8073,-0.0596 1.5268,-0.28801 1.599,-0.50765 z m 3.2751,0.35006 c 0,-0.12411 -0.2573,-0.41384 -0.5718,-0.64382 -0.3995,-0.2921 -0.6265,-1.18113 -0.753,-2.94933 -0.1721,-2.40562 -0.1438,-2.53114 0.5719,-2.53114 0.4141,0 0.7529,-0.15875 0.7529,-0.35278 0,-0.19403 -0.3175,-0.35278 -0.7055,-0.35278 -0.5488,0 -0.7056,-0.23519 -0.7056,-1.05833 0,-0.58208 -0.1724,-1.05833 -0.3831,-1.05833 -0.2605,0 -0.3452,1.30859 -0.2646,4.08604 0.1032,3.55706 0.2072,4.15082 0.8033,4.58612 0.7274,0.53117 1.2555,0.64657 1.2555,0.27435 z m 6.1423,-0.85968 c 1.3099,-1.55685 1.2622,-3.5589 -0.1179,-4.93896 -0.7038,-0.70379 -1.3845,-1.03121 -2.1438,-1.03121 -1.693,0 -3.175,1.64673 -3.175,3.52778 0,3.1544 3.5105,4.73146 5.4367,2.44239 z m -3.8235,-0.17399 c -1.7583,-1.75828 -0.7362,-5.09062 1.5614,-5.09062 2.3875,0 3.3325,3.99757 1.2705,5.37446 -0.6743,0.45022 -2.2564,0.29164 -2.8319,-0.28384 z m 6.5007,-1.40286 c 0,-2.5878 0.029,-2.67906 1.0561,-3.26319 0.5808,-0.33052 1.0571,-0.72002 1.0583,-0.86554 0,-0.41907 -0.8693,-0.30773 -1.3824,0.17638 -0.374,0.35278 -0.4998,0.35278 -0.6291,0 -0.4775,-1.30227 -0.8085,-0.0386 -0.8085,3.08681 0,2.11667 0.1411,3.52778 0.3528,3.52778 0.204,0 0.3528,-1.12261 0.3528,-2.66224 z m 8.4938,1.63103 c 1.7795,-1.77955 1.104,-3.47528 -1.7641,-4.42789 -2.1825,-0.72492 -2.7312,-1.31127 -1.9542,-2.08827 0.7043,-0.70432 1.4599,-0.71395 2.7613,-0.0353 1.2321,0.64255 1.1628,0.64251 1.4091,0 0.3187,-0.83044 -1.7191,-1.70614 -3.4347,-1.47606 -1.5974,0.21428 -2.3362,0.96679 -2.3362,2.37945 0,1.15888 0.6579,1.74844 2.7537,2.4675 2.162,0.74183 2.6449,1.55336 1.4887,2.50169 -0.8372,0.68658 -1.4375,0.71706 -3.9809,0.20204 -0.2178,-0.0441 -0.4544,0.18538 -0.5258,0.50994 -0.144,0.65483 0.5459,0.87129 3.0254,0.94932 1.2524,0.0394 1.7116,-0.13712 2.5577,-0.98315 z m 4.8034,0.47463 c 0.07,-0.20909 -0.2744,-0.56289 -0.7645,-0.78617 -0.8093,-0.36875 -0.8911,-0.60095 -0.8911,-2.53026 0,-2.03066 0.039,-2.12421 0.882,-2.12421 0.5487,0 0.8819,-0.19992 0.8819,-0.52917 0,-0.32925 -0.3332,-0.52917 -0.8819,-0.52917 -0.7448,0 -0.882,-0.16464 -0.882,-1.05833 0,-0.70556 -0.1764,-1.05833 -0.5291,-1.05833 -0.4396,0 -0.5292,0.68371 -0.5292,4.03694 0,3.78619 0.049,4.07155 0.7937,4.59412 0.8569,0.60152 1.7171,0.5946 1.9202,-0.0155 z m 5.6606,0.0169 c 1.0323,-0.72305 1.5395,-2.65091 1.1084,-4.21252 -0.4038,-1.46233 -1.4833,-2.30339 -2.9565,-2.30339 -1.4536,0 -2.5081,0.80659 -2.999,2.29415 -0.5,1.51511 0.028,3.4356 1.1642,4.23115 0.9749,0.68283 2.7009,0.67846 3.6829,-0.009 z m -3.2392,-1.3028 c -1.0671,-1.5234 -0.2851,-4.15484 1.2347,-4.15484 1.0222,0 2.0967,1.26548 2.0967,2.46944 0,1.20396 -1.0745,2.46944 -2.0967,2.46944 -0.3771,0 -0.9327,-0.35281 -1.2347,-0.78404 z m 10.3306,1.0016 c 0.1064,-0.56046 -0.022,-0.6272 -0.8207,-0.42672 -1.3658,0.3428 -2.1615,-0.0208 -2.6556,-1.21369 -0.3429,-0.82766 -0.3429,-1.26552 0,-2.09318 0.4941,-1.19281 1.2898,-1.55649 2.6556,-1.21369 0.7988,0.20045 0.9272,0.13374 0.8209,-0.42672 -0.1543,-0.8133 -2.1518,-1.1 -3.3174,-0.47615 -1.9855,1.06257 -2.0945,4.74927 -0.1848,6.24837 0.3078,0.24169 1.1933,0.40044 1.9678,0.35278 1.0589,-0.0651 1.4393,-0.25136 1.5342,-0.751 z m 2.5258,-0.74665 c 0,-0.87313 0.119,-1.58401 0.2645,-1.57974 0.1456,0.004 0.7409,0.71829 1.323,1.58672 0.7436,1.10942 1.301,1.57921 1.8746,1.57974 0.7783,0 0.7467,-0.0983 -0.6771,-2.12809 l -1.4933,-2.12888 1.366,-1.3989 c 1.1397,-1.16713 1.2506,-1.39891 0.6692,-1.39891 -0.3832,0 -1.2885,0.48782 -2.0118,1.08402 l -1.3151,1.08401 v -2.14235 c 0,-1.90715 -0.078,-2.14234 -0.7056,-2.14234 -0.6694,0 -0.7055,0.23519 -0.7055,4.58611 0,4.35091 0.036,4.58611 0.7055,4.58611 0.601,0 0.7056,-0.2352 0.7056,-1.5875 z m 244.6594,-0.88195 c 0.3431,-1.06715 0.6971,-2.13871 0.7866,-2.38125 0.09,-0.24253 0.018,-0.44097 -0.1583,-0.44097 -0.2857,0 -1.8711,4.34051 -1.8711,5.12265 0,0.72687 0.6653,-0.50468 1.2428,-2.30043 z m -51.8188,-0.48623 c 0.5077,-1.50506 0.6507,-2.33359 0.3878,-2.24592 -0.2292,0.0764 -0.6473,0.88113 -0.929,1.7883 -0.2817,0.90716 -0.6152,1.64941 -0.7411,1.64941 -0.1259,0 -0.4594,-0.74225 -0.7411,-1.64941 -0.2818,-0.90717 -0.702,-1.71263 -0.9339,-1.78993 -0.3685,-0.12287 0.01,1.32916 1.1498,4.43883 0.3493,0.9507 1.0233,0.13353 1.8075,-2.19128 z m 4.0094,2.25012 c 0.5391,-0.34844 0.4669,-0.38191 -1.0272,-0.47572 -1.4287,-0.0897 -1.324,-0.93539 0.1158,-0.93539 1.31,0 1.6458,-0.53552 0.8408,-1.34055 -1.0069,-1.0069 -2.7517,-0.23996 -2.7517,1.20953 0,1.49186 1.5714,2.35049 2.8223,1.54213 z m -1.7639,-2.11666 c 0,-0.19403 0.3572,-0.35035 0.7937,-0.34738 0.6419,0.004 0.6925,0.0708 0.2646,0.34738 -0.6839,0.44199 -1.0583,0.44199 -1.0583,0 z m 5.8067,2.13952 c 0.1121,-0.18147 -0.3151,-0.3799 -0.9493,-0.44097 -0.9653,-0.093 -1.1533,-0.25478 -1.1533,-0.993 0,-0.73822 0.188,-0.90004 1.1533,-0.993 1.2899,-0.12421 1.214,-0.77089 -0.091,-0.77089 -1.0002,0 -1.9447,0.85669 -1.9447,1.76389 0,1.31974 2.3556,2.45156 2.9845,1.43397 z m 2.3072,-0.0229 c 0,-0.19403 -0.1588,-0.35278 -0.3528,-0.35278 -0.5122,0 -0.4339,-2.03083 0.085,-2.2038 0.3106,-0.10357 0.2501,-0.33366 -0.2084,-0.79216 -0.5157,-0.51569 -0.7047,-0.55171 -0.9354,-0.17833 -0.2605,0.42143 -0.1535,2.29983 0.1958,3.43888 0.1602,0.52243 1.2157,0.59898 1.2157,0.0882 z m 3.6789,-0.20158 c 1.0699,-1.06986 0.2956,-2.97342 -1.2095,-2.97342 -0.8417,0 -1.7639,0.92216 -1.7639,1.76389 0,0.84173 0.9222,1.76389 1.7639,1.76389 0.3603,0 0.9046,-0.24945 1.2095,-0.55436 z m -2.1308,-0.65563 c -0.3512,-0.91532 0.1411,-1.67185 1.0079,-1.54877 0.5831,0.0828 0.7953,0.34834 0.7953,0.99487 0,0.64654 -0.2122,0.91207 -0.7953,0.99487 -0.477,0.0678 -0.8804,-0.10873 -1.0079,-0.44097 z m 4.0963,-0.0358 c 0,-0.78193 0.197,-1.3214 0.5292,-1.44886 0.8251,-0.31662 0.6223,-0.74492 -0.3528,-0.74492 -0.8201,0 -0.882,0.12054 -0.882,1.71979 0,0.9459 0.1588,1.71979 0.3528,1.71979 0.1941,0 0.3528,-0.5606 0.3528,-1.2458 z m 4.5721,0.73357 c 0.6275,-0.75608 0.1368,-1.82076 -1.0693,-2.32036 -1.2537,-0.51929 -1.1799,-1.21765 0.131,-1.24048 1.3247,-0.0233 1.5585,-0.43599 0.4102,-0.72421 -1.1827,-0.29683 -2.0636,0.18968 -2.2174,1.2247 -0.088,0.59383 0.1738,0.88519 1.1709,1.30182 1.52,0.63507 1.4477,1.41055 -0.1247,1.33682 -1.0641,-0.0499 -1.3743,0.19815 -0.8737,0.69874 0.4282,0.42824 2.1407,0.24388 2.573,-0.27703 z m 2.4835,0.15945 c 0,-0.19403 -0.1588,-0.35278 -0.3528,-0.35278 -0.194,0 -0.3528,-0.47625 -0.3528,-1.05833 0,-0.58208 0.1834,-1.05833 0.4075,-1.05833 0.2294,0 0.1252,-0.31182 -0.2387,-0.71388 -0.4612,-0.5097 -0.7201,-0.59405 -0.905,-0.29489 -0.2358,0.38149 -0.1077,2.3017 0.226,3.39002 0.1603,0.52243 1.2158,0.59898 1.2158,0.0882 z m 3.6789,-0.20158 c 1.0699,-1.06986 0.2956,-2.97342 -1.2095,-2.97342 -0.8417,0 -1.7639,0.92216 -1.7639,1.76389 0,0.84173 0.9222,1.76389 1.7639,1.76389 0.3603,0 0.9046,-0.24945 1.2095,-0.55436 z m -2.1308,-0.65563 c -0.3512,-0.91532 0.1411,-1.67185 1.0079,-1.54877 0.5831,0.0828 0.7953,0.34834 0.7953,0.99487 0,0.64654 -0.2122,0.91207 -0.7953,0.99487 -0.477,0.0678 -0.8804,-0.10873 -1.0079,-0.44097 z m 6.4515,0.67733 c 0.064,-0.19593 -0.3999,-0.35468 -1.0311,-0.35278 -0.99,0.004 -1.1477,-0.11772 -1.1477,-0.87845 0,-0.73822 0.1879,-0.90004 1.1532,-0.993 1.29,-0.12421 1.2141,-0.77089 -0.091,-0.77089 -1.6825,0 -2.525,1.83872 -1.3711,2.99258 0.6053,0.60533 2.2894,0.60706 2.4872,0.004 z m 1.1853,-0.43748 0.013,-0.97014 0.7943,0.97014 c 1.0594,1.29392 1.4502,1.23137 0.7512,-0.12026 -0.5221,-1.00954 -0.5187,-1.14035 0.046,-1.76389 0.5255,-0.58064 0.5342,-0.67349 0.063,-0.67349 -0.3004,0 -0.6375,0.23813 -0.7492,0.52917 -0.3719,0.96926 -0.9307,0.54564 -0.9307,-0.70556 0,-0.67909 -0.1588,-1.23472 -0.3528,-1.23472 -0.2016,0 -0.3528,1.05833 -0.3528,2.46945 0,1.41111 0.1512,2.46944 0.3528,2.46944 0.194,0 0.3585,-0.43656 0.3655,-0.97014 z m 3.5151,0.61736 c 0,-0.19403 -0.1588,-0.35278 -0.3528,-0.35278 -0.194,0 -0.3528,0.15875 -0.3528,0.35278 0,0.19403 0.1588,0.35278 0.3528,0.35278 0.194,0 0.3528,-0.15875 0.3528,-0.35278 z m 4.1191,-0.17988 c 0.064,-0.19593 -0.3999,-0.35468 -1.0312,-0.35278 -0.9899,0.004 -1.1477,-0.11772 -1.1477,-0.87845 0,-0.73822 0.188,-0.90004 1.1533,-0.993 1.2899,-0.12421 1.214,-0.77089 -0.091,-0.77089 -1.6826,0 -2.525,1.83872 -1.3712,2.99258 0.6054,0.60533 2.2895,0.60706 2.4873,0.004 z m 3.4404,-0.0219 c 1.0699,-1.06969 0.2955,-2.97325 -1.2095,-2.97325 -0.8418,0 -1.7639,0.92216 -1.7639,1.76389 0,0.84173 0.9221,1.76389 1.7639,1.76389 0.3603,0 0.9046,-0.24945 1.2095,-0.55436 z m -2.1308,-0.65564 c -0.3513,-0.91532 0.1411,-1.67185 1.0079,-1.54876 0.583,0.0828 0.7953,0.34833 0.7953,0.99486 0,0.64654 -0.2123,0.91208 -0.7953,0.99487 -0.4771,0.0678 -0.8804,-0.10872 -1.0079,-0.44097 z m 4.1632,-0.11292 c 0.088,-1.06264 0.2656,-1.34511 0.9032,-1.43567 0.7116,-0.10103 0.7937,0.0359 0.7937,1.32292 0,1.80209 0.6249,1.89565 0.7725,0.11568 0.076,-0.92248 0.2954,-1.3552 0.7269,-1.43697 0.506,-0.0959 0.6173,0.14202 0.6173,1.31998 0,0.79033 0.1588,1.43697 0.3528,1.43697 0.3853,0 0.4821,-2.07458 0.1386,-2.96975 -0.2533,-0.66022 -1.2343,-0.73233 -1.8319,-0.13469 -0.3265,0.32642 -0.4234,0.32699 -0.4234,0.004 0,-0.26497 -0.5226,-0.40034 -1.4111,-0.36552 l -1.4111,0.0553 v 1.70603 c 0,2.00473 0.6131,2.30883 0.7725,0.38315 z m 10.7986,0.89976 c 0.5798,-0.57979 0.5308,-1.34271 -0.1335,-2.0767 -0.5079,-0.56123 -0.5043,-0.69543 0.041,-1.52707 l 0.5974,-0.91179 h -1.6489 c -1.0094,0 -1.5643,0.13681 -1.4308,0.35278 0.1199,0.19403 0.5261,0.35278 0.9027,0.35278 0.7865,0 0.8779,0.37133 0.2467,1.00245 -0.431,0.43106 -0.1071,0.84959 0.9425,1.21782 0.1804,0.0633 0.2177,0.40274 0.083,0.75431 -0.1896,0.49407 -0.4844,0.5914 -1.2982,0.42863 -0.5791,-0.11582 -1.0529,-0.069 -1.0529,0.104 0,0.72235 2.1009,0.95356 2.7517,0.30279 z m 3.7495,-0.13103 c 0.3049,-0.3049 0.5544,-0.8492 0.5544,-1.20953 0,-0.77731 -0.902,-1.76389 -1.6127,-1.76389 -0.2772,0 -0.504,-0.15875 -0.504,-0.35278 0,-0.19402 0.3969,-0.35277 0.882,-0.35277 0.485,0 0.8819,-0.15875 0.8819,-0.35278 0,-0.19403 -0.5556,-0.35278 -1.2347,-0.35278 -0.982,0 -1.2347,0.1385 -1.2347,0.6767 0,0.37218 -0.091,0.91274 -0.2013,1.20124 -0.1554,0.40503 0.066,0.5121 0.9701,0.46983 1.029,-0.0481 1.1715,0.0526 1.1715,0.82723 0,0.7705 -0.1449,0.87538 -1.1466,0.82995 -1.1379,-0.0516 -1.5515,0.35895 -0.7055,0.7003 0.8507,0.34328 1.6304,0.22856 2.1796,-0.32072 z m 4.7877,0.20158 c 0,-0.19403 -0.6747,-0.3581 -1.4993,-0.36459 l -1.4993,-0.012 1.3229,-1.0807 c 1.3592,-1.11037 1.6426,-1.96264 0.8996,-2.70563 -0.5864,-0.58642 -1.8713,-0.52983 -2.3987,0.10562 -0.3782,0.45572 -0.2924,0.49964 0.6196,0.31722 1.6539,-0.33076 1.7893,0.46821 0.3092,1.82415 -1.8324,1.67876 -1.7071,2.26857 0.4821,2.26857 0.9702,0 1.7639,-0.15875 1.7639,-0.35278 z m 3.4573,-0.0706 c 1.0633,-1.06335 -0.1,-2.96245 -1.5862,-2.58943 -0.7655,0.19213 -0.8117,0.14221 -0.466,-0.50366 0.2264,-0.42301 0.7401,-0.71691 1.2532,-0.71691 0.4782,0 0.8695,-0.15875 0.8695,-0.35278 0,-0.19403 -0.3907,-0.35278 -0.8682,-0.35278 -1.8938,0 -3.035,2.84395 -1.7229,4.29377 0.6669,0.73695 1.8971,0.84522 2.5206,0.22179 z m -2.1892,-0.85171 c -0.1281,-0.33377 -0.086,-0.75393 0.094,-0.9337 0.5461,-0.54614 1.6365,-0.12901 1.6365,0.62607 0,0.90957 -1.4038,1.15912 -1.7305,0.30763 z m 5.5859,0.72068 c 0.3049,-0.3049 0.5544,-0.8492 0.5544,-1.20953 0,-0.77731 -0.902,-1.76389 -1.6127,-1.76389 -0.2772,0 -0.504,-0.15875 -0.504,-0.35278 0,-0.19402 0.3969,-0.35277 0.8819,-0.35277 0.4851,0 0.882,-0.15875 0.882,-0.35278 0,-0.19403 -0.5556,-0.35278 -1.2347,-0.35278 -0.982,0 -1.2348,0.1385 -1.2348,0.6767 0,0.37218 -0.091,0.91274 -0.2012,1.20124 -0.1555,0.40503 0.066,0.5121 0.9701,0.46983 1.0289,-0.0481 1.1714,0.0526 1.1714,0.82723 0,0.7705 -0.1449,0.87538 -1.1465,0.82995 -1.1379,-0.0516 -1.5515,0.35895 -0.7056,0.7003 0.8508,0.34328 1.6304,0.22856 2.1797,-0.32072 z m 3.4936,0.11222 c 0.9338,-0.68276 1.1752,-2.94802 0.4049,-3.79917 -1.1085,-1.22488 -2.6386,-0.67511 -2.6386,0.94806 0,0.91782 1.0796,1.63442 1.9558,1.29822 0.5136,-0.1971 0.5397,-0.12396 0.1895,0.53044 -0.2234,0.41748 -0.7181,0.75903 -1.0994,0.75903 -0.3812,0 -0.6931,0.15875 -0.6931,0.35278 0,0.49477 1.1573,0.43978 1.8809,-0.0894 z m -1.3941,-2.53957 c -0.2457,-0.64044 0.1112,-1.25162 0.731,-1.25162 0.5348,0 1.0019,0.95902 0.7028,1.44293 -0.3083,0.49893 -1.2153,0.37789 -1.4338,-0.19131 z m 6.1454,2.55838 c 1.0634,-1.06335 -0.1,-2.96245 -1.5861,-2.58943 -0.7655,0.19213 -0.8117,0.14221 -0.4661,-0.50366 0.2264,-0.42301 0.7402,-0.71691 1.2532,-0.71691 0.4783,0 0.8696,-0.15875 0.8696,-0.35278 0,-0.19403 -0.3907,-0.35278 -0.8682,-0.35278 -1.8938,0 -3.035,2.84395 -1.723,4.29377 0.667,0.73695 1.8972,0.84522 2.5206,0.22179 z m -2.1891,-0.85171 c -0.1281,-0.33377 -0.086,-0.75393 0.094,-0.9337 0.5461,-0.54614 1.6365,-0.12901 1.6365,0.62607 0,0.90957 -1.4038,1.15912 -1.7305,0.30763 z m -264.322,-4.72204 c -0.42,-0.16933 -0.9311,-0.59584 -1.1358,-0.94777 -0.2047,-0.35193 -0.377,-0.49361 -0.3829,-0.31486 -0.018,0.55475 1.1278,1.61643 1.7196,1.5929 0.3809,-0.0152 0.316,-0.12181 -0.2009,-0.33027 z m 1.9984,-1.60563 c 0,-1.03174 -0.8779,-1.92229 -1.895,-1.92229 -0.8357,0 -1.6399,0.60339 -1.6221,1.21708 0.01,0.20373 0.1725,0.0926 0.3703,-0.24694 0.4128,-0.70866 1.7468,-0.81788 2.3706,-0.19403 0.5505,0.55048 0.5415,1.7725 -0.018,2.39953 -0.3751,0.42068 -0.3488,0.42477 0.1764,0.0275 0.3396,-0.25693 0.6174,-0.83322 0.6174,-1.28069 z m -1.6253,0.51583 c 0.3112,0.25827 0.4186,0.10043 0.4067,-0.59782 -0.01,-0.61486 -0.2335,-0.9906 -0.6335,-1.06761 -0.4921,-0.0948 -0.6117,0.11913 -0.5895,1.05353 0.015,0.64481 0.1101,0.96732 0.2107,0.71671 0.1248,-0.31115 0.3169,-0.34438 0.6056,-0.10481 z m -0.4914,-1.02701 c 0,-0.19403 0.1587,-0.35278 0.3528,-0.35278 0.194,0 0.3527,0.15875 0.3527,0.35278 0,0.19403 -0.1587,0.35278 -0.3527,0.35278 -0.1941,0 -0.3528,-0.15875 -0.3528,-0.35278 z m 95.2042,-56.74572 c -12.8706,-4.24126 -24.8406,-25.65976 -32.4115,-57.99525 -0.6246,-2.66788 -1.2505,-4.8507 -1.3908,-4.8507 -0.1402,0 -2.6117,0.71778 -5.4921,1.59506 -10.1827,3.10136 -21.5227,5.58437 -30.6862,6.71907 -5.5237,0.68399 -15.8632,0.78298 -19.7556,0.18915 -10.2664,-1.56626 -16.689,-5.56712 -19.3136,-12.03105 -0.6793,-1.67279 -0.7858,-2.57253 -0.7724,-6.52639 0.013,-3.99953 0.1355,-4.94709 0.9547,-7.40834 1.9291,-5.79601 6.5635,-13.51342 12.293,-20.47098 5.606,-6.8077 18.4909,-19.22205 27.9049,-26.88598 l 3.0749,-2.50325 -3.4277,-2.75219 c -1.8852,-1.5137 -5.6687,-4.68789 -8.4078,-7.05374 l -4.9802,-4.30156 -1.8982,0.93941 c -1.6088,0.79619 -2.3555,0.93888 -4.8976,0.93596 -3.6099,-0.004 -5.5434,-0.75764 -7.8396,-3.05515 -2.3727,-2.37407 -3.2505,-4.49521 -3.2632,-7.88493 -0.01,-2.49316 0.1263,-3.10746 1.1396,-5.1659 l 1.1502,-2.33625 -2.4611,-3.30077 c -4.6977,-6.30044 -8.2577,-13.38645 -9.3614,-18.6332 -2.3742,-11.28667 3.1168,-19.36696 15.2531,-22.44558 12.5122,-3.17397 32.1513,-1.09475 56.2613,5.95646 3.6329,1.06245 4.1568,1.14049 4.3017,0.64067 0.091,-0.31302 0.6545,-2.58661 1.2528,-5.05243 4.6967,-19.35649 11.1701,-35.39753 18.3689,-45.51798 2.7666,-3.88942 7.6396,-8.60253 10.5855,-10.23828 11.3498,-6.30201 22.6688,-0.37213 30.9888,16.23466 5.8637,11.70373 10.8769,29.78515 13.4453,48.49292 l 0.4224,3.0769 1.2862,-0.53741 c 0.7074,-0.29558 3.7079,-1.43132 6.6677,-2.52387 l 5.3816,-1.98647 v -2.34876 c 0,-4.08762 2.7193,-8.22212 6.5111,-9.89937 4.9609,-2.19449 11.1938,-0.27905 14.0517,4.31826 1.0169,1.63594 1.1796,1.75167 2.1744,1.54701 12.5562,-2.58314 23.0588,-2.82513 30.3913,-0.70025 3.942,1.14235 6.0922,2.30493 8.6765,4.6913 6.3496,5.86327 6.7024,15.17965 1.0245,27.0508 -5.1005,10.66379 -13.3017,21.28682 -26.7584,34.66034 l -7.2004,7.15594 6.5055,6.32509 c 19.0453,18.51698 29.6538,34.47583 31.3392,47.14491 1.2546,9.43113 -3.1419,16.38971 -12.3797,19.59407 -12.0796,4.19006 -35.5931,0.47671 -63.2965,-9.99602 -2.5031,-0.94624 -4.6097,-1.66179 -4.6814,-1.59011 -0.072,0.0717 -0.5943,2.81267 -1.1614,6.09109 -1.0296,5.95138 -2.5768,13.51353 -3.7749,18.45033 -0.6197,2.55297 -0.6187,2.62051 0.042,2.99861 1.6494,0.94465 3.7846,3.26966 4.6832,5.09939 1.2757,2.59771 1.3632,6.70388 0.1977,9.28412 -1.8644,4.12789 -5.9843,6.76567 -10.4941,6.71895 l -2.4873,-0.0258 -1.5861,3.03193 c -2.6437,5.0535 -4.9029,8.22279 -8.2623,11.59067 -2.5273,2.53369 -3.7893,3.49816 -5.9917,4.57928 -2.6078,1.28005 -3.0228,1.3758 -6.35,1.46482 -2.7174,0.0727 -4.03,-0.0597 -5.546,-0.55923 z m 10.6686,-6.13989 c 3.759,-1.84438 9.0003,-7.51578 12.1485,-13.14533 l 1.2917,-2.3097 -1.6495,-1.76346 c -2.4128,-2.57951 -3.1766,-4.48225 -3.1766,-7.91395 0,-3.33827 0.7468,-5.28878 2.9331,-7.6606 2.2972,-2.49213 6.3701,-4.02738 9.4343,-3.55617 l 1.0891,0.16748 1.2722,-4.35314 c 2.4066,-8.23478 5.3761,-21.16941 5.1331,-22.35932 -0.072,-0.35486 -1.6564,-1.21293 -4.1737,-2.26099 -5.2741,-2.19584 -9.6904,-4.17218 -17.3193,-7.75063 l -6.2067,-2.91138 -3.8474,1.92858 c -6.3409,3.17845 -15.3807,7.21558 -23.233,10.3757 -4.0706,1.63817 -7.5046,3.0425 -7.6312,3.12075 -0.1266,0.0782 0.2264,2.79062 0.7845,6.0275 5.055,29.31989 13.8238,49.48811 23.676,54.45457 1.9888,1.00256 2.4612,1.0996 4.8493,0.99613 2.011,-0.0871 3.1209,-0.34773 4.6256,-1.08604 z m 16.2997,-25.01368 c 1.8635,-0.99254 2.2422,-3.26526 0.7866,-4.72091 -1.5459,-1.54586 -3.9846,-1.01392 -4.7653,1.0394 -0.5254,1.38187 -0.09,2.64449 1.1799,3.4186 1.2797,0.78033 1.7452,0.82406 2.7988,0.26291 z m 70.7969,-28.88222 c 11.2788,-1.18671 17.0026,-5.32816 17.048,-12.33516 0.058,-9.01056 -7.8849,-21.37553 -23.4557,-36.5125 -4.6851,-4.55466 -15.3122,-13.91789 -16.1251,-14.20752 -0.1489,-0.053 -1.7677,1.12505 -3.5974,2.61793 -5.3162,4.33764 -15.54,11.87191 -21.8795,16.12377 l -5.8527,3.92543 -0.438,5.82436 c -0.3703,4.9231 -1.509,15.77859 -2.3517,22.41744 l -0.2254,1.7764 6.8311,2.18302 c 15.2563,4.87545 26.5617,7.2902 38.9339,8.31606 3.1343,0.25989 7.9461,0.20393 11.1125,-0.12923 z m -169.5859,-2.58541 c 9.2054,-1.61161 20.6233,-4.81408 31.9485,-8.96086 4.3205,-1.58198 4.3539,-1.60283 4.1567,-2.58898 -1.1342,-5.67113 -3.4278,-25.2943 -3.9619,-33.89677 l -0.2341,-3.77046 -3.0401,-2.01503 c -4.338,-2.87525 -11.8448,-8.20611 -16.9475,-12.03502 -4.3034,-3.22911 -4.3957,-3.27694 -5.1153,-2.65201 -20.6224,17.90842 -34.1958,34.85277 -38.4951,48.0555 -1.2068,3.70593 -1.4014,9.16868 -0.4047,11.36394 1.6444,3.62219 5.2383,6.00598 10.8267,7.18129 3.7906,0.79723 14.8432,0.44299 21.2668,-0.6816 z m 112.5656,-14.86488 c 1.2955,-8.48056 2.8615,-22.40139 2.5201,-22.40139 -0.089,0 -1.8724,1.06022 -3.9633,2.35605 -7.0601,4.37539 -18.9923,11.11112 -26.0268,14.69215 l -1.0583,0.53876 2.8222,1.29778 c 9.4034,4.32404 24.17,10.18978 24.5658,9.75824 0.1233,-0.1344 0.6364,-2.94312 1.1403,-6.24159 z m -58.4192,-3.2258 c 3.1567,-1.42867 8.1444,-3.802 11.0836,-5.27406 l 5.344,-2.67647 -3.5871,-1.92932 c -1.9729,-1.06112 -3.5871,-2.0079 -3.5871,-2.10395 0,-0.096 1.6951,0.73459 3.7669,1.84588 l 3.7668,2.02051 3.2005,-1.63898 c 11.0111,-5.63874 32.1445,-18.01701 40.7714,-23.88059 1.0671,-0.72533 4.1627,-2.7986 6.8791,-4.60726 5.6029,-3.73056 15.567,-10.77187 15.8181,-11.17804 0.1859,-0.30087 -6.9339,-5.48297 -15.3771,-11.19205 l -5.5562,-3.75701 -0.079,14.39579 -0.079,14.39579 -0.1999,-14.46389 c -0.1099,-7.95514 -0.2333,-14.49766 -0.2742,-14.53894 -1.9183,-1.93597 -26.6222,-16.29208 -39.3533,-22.86927 l -6.2942,-3.25174 -1.6153,0.90286 c -0.8885,0.49657 -1.5123,0.73604 -1.3863,0.53216 0.126,-0.20389 0.7087,-0.56938 1.295,-0.81221 0.5862,-0.24283 1.0659,-0.55354 1.0659,-0.69046 0,-0.6207 -21.8435,-10.78942 -22.2336,-10.35029 -0.3992,0.44943 -2.5334,24.44317 -2.1742,24.44317 0.075,0 2.7003,-1.53246 5.8339,-3.40547 6.2262,-3.72149 6.5096,-3.88252 6.1759,-3.50889 -0.1249,0.13987 -2.9031,1.8759 -6.1736,3.85784 l -5.9465,3.60353 -0.3122,3.69524 c -0.1717,2.03239 -0.3304,13.90603 -0.3527,26.38587 -0.035,19.82792 0.026,22.72898 0.4885,22.9946 0.2911,0.16718 0.8467,0.56971 1.2348,0.89451 0.6511,0.54502 0.6284,0.54471 -0.2952,-0.004 -0.5504,-0.32701 -1.072,-0.52335 -1.159,-0.43631 -0.2813,0.28131 1.1966,19.56921 1.8513,24.16215 0.2606,1.82756 -0.2751,1.93963 7.4591,-1.56066 z m 7.4013,-12.84961 c -0.7276,-0.38412 -1.3229,-0.7772 -1.3229,-0.87352 0,-0.0963 0.635,0.14882 1.4111,0.54476 0.7761,0.39594 1.4111,0.79604 1.4111,0.88911 0,0.23078 0,0.22986 -1.4993,-0.56035 z m -2.5784,-1.58294 c -0.6576,-0.52684 -0.6532,-0.53335 0.109,-0.16398 0.4366,0.21156 0.7937,0.45844 0.7937,0.54863 0,0.26995 -0.1829,0.19199 -0.9027,-0.38465 z m -2.4694,-1.41112 c -0.6576,-0.52683 -0.6533,-0.53334 0.1089,-0.16397 0.4366,0.21156 0.7938,0.45844 0.7938,0.54863 0,0.26995 -0.183,0.19199 -0.9027,-0.38466 z m -1.7639,-1.05833 c -0.6576,-0.52683 -0.6533,-0.53335 0.109,-0.16397 0.4365,0.21155 0.7937,0.45843 0.7937,0.54862 0,0.26995 -0.1829,0.192 -0.9027,-0.38465 z m -7.0556,-4.23333 c -0.6575,-0.52684 -0.6532,-0.53335 0.109,-0.16398 0.4366,0.21156 0.7938,0.45844 0.7938,0.54863 0,0.26995 -0.183,0.19199 -0.9028,-0.38465 z m 24.98,-8.45306 c -3.7598,-0.81675 -6.6508,-2.47157 -9.8244,-5.62346 -3.211,-3.18908 -4.7689,-5.95516 -5.6224,-9.98261 -0.9671,-4.56349 -0.4161,-9.08001 1.6349,-13.40254 1.5382,-3.24165 5.9007,-7.60037 9.2126,-9.20456 5.8225,-2.82023 12.3716,-2.82023 18.1941,0 3.2548,1.57655 7.6135,5.93519 9.19,9.19005 2.8203,5.82248 2.8203,12.37158 0,18.19406 -1.5765,3.25486 -5.9352,7.6135 -9.19,9.19005 -4.246,2.0566 -9.0219,2.63239 -13.5948,1.63901 z m 0.016,-19.74215 c 1.6621,-0.69448 2.7938,-2.36129 2.9901,-4.40393 0.194,-2.01869 -0.475,-3.47485 -2.2013,-4.79155 -2.3051,-1.75821 -6.0698,-1.03453 -7.6173,1.46427 -1.7006,2.74609 -0.5873,6.47698 2.3149,7.75805 1.4049,0.62013 2.9877,0.61072 4.5136,-0.0268 z m -14.9206,-34.56166 c 0,-0.097 0.4762,-0.42266 1.0583,-0.72367 0.5821,-0.30101 1.0583,-0.46791 1.0583,-0.3709 0,0.097 -0.4762,0.42267 -1.0583,0.72368 -0.5821,0.30101 -1.0583,0.46791 -1.0583,0.37089 z m 3.175,-1.75718 c 0,-0.097 0.3175,-0.34631 0.7055,-0.55399 0.3881,-0.20768 0.7056,-0.29823 0.7056,-0.20121 0,0.097 -0.3175,0.34631 -0.7056,0.55399 -0.388,0.20768 -0.7055,0.29823 -0.7055,0.20121 z m 3.175,-1.77059 c 0,-0.097 0.4762,-0.42267 1.0583,-0.72368 0.5821,-0.30101 1.0583,-0.46791 1.0583,-0.37089 0,0.097 -0.4762,0.42266 -1.0583,0.72367 -0.5821,0.30101 -1.0583,0.46791 -1.0583,0.3709 z m -32.3548,54.39785 c -0.1289,-0.63059 -0.244,-8.48839 -0.2558,-17.46177 -0.012,-8.97339 -0.082,-16.31558 -0.1572,-16.31598 -0.7244,-0.004 -22.2656,16.66965 -22.2656,17.23422 0,0.64701 21.8269,17.68847 22.6572,17.68968 0.1407,2.1e-4 0.1503,-0.51556 0.021,-1.14615 z m -18.3838,-21.87927 c 3.1692,-2.38071 8.546,-6.26084 11.9485,-8.6225 l 6.1864,-4.29393 0.4527,-7.1643 c 0.6105,-9.66161 1.9296,-21.29076 3.4359,-30.28957 0.197,-1.177 0.138,-1.27693 -0.9716,-1.64668 -0.6498,-0.2165 -3.8565,-1.36345 -7.1261,-2.54877 -22.891,-8.29875 -42.4363,-10.90983 -52.5875,-7.02521 -2.3755,0.90906 -5.2101,3.32587 -6.3083,5.37843 -0.6645,1.24221 -0.7726,1.98346 -0.7512,5.15499 0.02,3.04748 0.1984,4.23578 1.0033,6.70278 1.1526,3.5323 4.2279,9.60763 6.8837,13.59857 l 1.8891,2.83885 1.9786,-0.67166 c 5.0843,-1.72587 10.9536,0.948 13.4042,6.10646 1.3374,2.81534 1.2927,6.73665 -0.1101,9.64985 l -0.9944,2.06512 2.6006,2.64832 c 2.1408,2.18003 13.0388,12.41725 13.244,12.4409 0.033,0.004 2.653,-1.94093 5.8222,-4.32165 z m 138.6511,-5.76005 c 19.8782,-16.58764 31.974,-31.77441 34.344,-43.12049 0.6811,-3.26025 0.4691,-5.5304 -0.7526,-8.06189 -1.9441,-4.02817 -6.8668,-6.54159 -14.7575,-7.53479 -3.9379,-0.49567 -14.0314,-0.28941 -18.9694,0.38765 l -3.0632,0.42 -0.2243,1.45532 c -0.6551,4.25182 -2.8581,7.50527 -6.3113,9.3209 -1.5678,0.82433 -2.2142,0.94737 -4.9768,0.94737 -2.7627,0 -3.4091,-0.12304 -4.9769,-0.94737 -1.5516,-0.81582 -5.0667,-4.14711 -5.0827,-4.81692 -0.028,-1.15736 -0.7462,-1.06181 -7.17,0.95348 -3.6297,1.13869 -6.6815,2.15243 -6.7818,2.25274 -0.1003,0.10032 0.1378,2.98925 0.5291,6.41985 0.3913,3.43059 0.9642,9.68158 1.273,13.89108 0.3088,4.2095 0.636,8.16287 0.727,8.78527 0.1476,1.00873 0.7675,1.54135 5.7086,4.90456 8.2938,5.64522 19.6542,14.12463 23.5461,17.57486 0.7699,0.68248 1.5904,1.20544 1.8234,1.16213 0.233,-0.0433 2.5348,-1.84049 5.1153,-3.99375 z m -171.0393,-13.57309 c 1.7354,-1.36505 1.0166,-4.218 -1.2654,-5.02222 -1.0153,-0.35782 -2.7291,0.46805 -3.3125,1.59629 -1.4917,2.88462 1.9714,5.47624 4.5779,3.42593 z m 134.0498,-6.58898 c -0.901,-8.12668 -2.1111,-17.27227 -2.8824,-21.78403 l -0.9649,-5.64444 -0.9364,0.0632 c -1.139,0.0768 -14.1393,5.21962 -20.854,8.24963 l -4.8772,2.20081 0.9966,0.59461 c 0.5482,0.32704 3.1398,1.754 5.7592,3.17102 4.8754,2.63751 17.5486,10.15791 21.343,12.6652 1.1642,0.76926 2.2082,1.41115 2.3202,1.42641 0.1119,0.0153 0.1551,-0.40881 0.096,-0.94239 z m -13.5286,-25.30647 c 3.5895,-1.59438 7.1217,-3.11315 7.8493,-3.37505 0.7276,-0.26191 1.3229,-0.68932 1.3229,-0.94982 0,-0.2605 -0.5576,-2.96704 -1.2392,-6.01455 -5.5426,-24.78128 -13.7568,-44.07302 -22.4307,-52.67976 -3.6142,-3.58629 -5.8931,-4.71949 -9.4912,-4.71949 -3.2698,0 -5.1382,0.82946 -8.1506,3.61838 -6.8678,6.35845 -13.2058,21.19929 -17.4375,40.83162 -0.8843,4.10241 -2.9865,15.80971 -2.862,15.9388 0.034,0.0351 3.2948,1.35693 7.2467,2.93743 7.5442,3.01724 17.3269,7.39214 23.8214,10.65311 l 3.8527,1.9345 5.4959,-2.63815 c 3.0228,-1.45098 8.4328,-3.94264 12.0223,-5.53702 z m 34.7647,-13.39486 c 2.1609,-2.16093 -0.1173,-5.73571 -3.0122,-4.72653 -1.2837,0.44751 -2.2686,2.12683 -1.9625,3.34636 0.567,2.25894 3.3295,3.02537 4.9747,1.38017 z"
       id="path1658"
       inkscape:connector-curvature="0"
       clip-path="url(#clipPath1664)" />
  </g>
</svg>
